<?xml version="1.0" encoding="UTF-8" standalone="no"?>
<svg
   version="1.0"
   width="1000pt"
   height="1000pt"
   viewBox="0 0 1000 1000"
   preserveAspectRatio="xMidYMid"
   id="svg7"
   sodipodi:docname="troy_web_dev.svg"
   xml:space="preserve"
   inkscape:version="1.3 (0e150ed6c4, 2023-07-21)"
   xmlns:inkscape="http://www.inkscape.org/namespaces/inkscape"
   xmlns:sodipodi="http://sodipodi.sourceforge.net/DTD/sodipodi-0.dtd"
   xmlns="http://www.w3.org/2000/svg"
   xmlns:svg="http://www.w3.org/2000/svg"><defs
     id="defs7" /><sodipodi:namedview
     id="namedview7"
     pagecolor="#0d1949"
     bordercolor="#000000"
     borderopacity="0.25"
     inkscape:showpageshadow="2"
     inkscape:pageopacity="0.0"
     inkscape:pagecheckerboard="0"
     inkscape:deskcolor="#d1d1d1"
     inkscape:document-units="pt"
     inkscape:zoom="0.52940521"
     inkscape:cx="735.73133"
     inkscape:cy="681.89733"
     inkscape:window-width="1920"
     inkscape:window-height="1112"
     inkscape:window-x="-8"
     inkscape:window-y="-8"
     inkscape:window-maximized="1"
     inkscape:current-layer="svg7" /><rect
     style="fill:#0d1949;fill-opacity:1;stroke-width:8.23334;stroke-linejoin:bevel;stroke-dasharray:16.4668, 32.9336;paint-order:stroke markers fill"
     id="rect1"
     width="1099.3469"
     height="1099.3469"
     x="-55.250683"
     y="-48.167263" /><g
     id="g13"
     transform="matrix(2.049322,0,0,2.049322,-2310.8949,954.07358)"><path
       id="text7"
       style="font-style:normal;font-variant:normal;font-weight:normal;font-stretch:normal;font-size:68.4115px;line-height:0;font-family:'Glacial Indifference';-inkscape-font-specification:'Glacial Indifference';text-align:center;letter-spacing:0px;word-spacing:0px;text-anchor:middle;fill:#f9f9f9;fill-opacity:1;stroke-width:9.22859;stroke-linejoin:bevel;stroke-dasharray:18.4573, 36.9147;paint-order:stroke markers fill"
       d="m 1405.6069,-106.87793 v 51.309082 h 4.7886 v -5.131347 c 0.2052,0.410468 0.5481,0.753209 0.8218,1.026855 2.8733,3.215337 6.362,4.788574 10.5351,4.788574 4.1047,0 7.5931,-1.573237 10.4664,-4.788574 2.7364,-3.078514 4.1733,-6.703804 4.1733,-10.945312 0,-4.173098 -1.4369,-7.799852 -4.1733,-10.946778 -2.8733,-3.146925 -6.3617,-4.788574 -10.4664,-4.788574 -4.1731,0 -7.6618,1.641649 -10.5351,4.788574 -0.2737,0.342057 -0.6166,0.68377 -0.8218,1.094239 v -26.406739 z m -69.164,2.05225 -14.0244,36.531735 -7.1822,-33.793945 h -4.9262 l 10.8779,50.282226 15.2549,-40.5 15.2563,40.5 10.8091,-50.282226 h -4.8574 l -7.251,33.793945 z m 126.7309,2.89013 v 46.224612 h 12.0996 c 3.263,0 6.3905,-0.543595 9.3135,-1.699218 2.8551,-1.155623 5.3701,-2.787326 7.5454,-4.82666 2.1073,-2.039335 3.8067,-4.417881 5.0303,-7.27295 1.2236,-2.855068 1.9028,-5.914585 1.9028,-9.313476 0,-3.330914 -0.6792,-6.38956 -1.9028,-9.244629 -1.2236,-2.855069 -2.923,-5.302462 -5.0303,-7.341797 -2.1753,-2.039335 -4.6903,-3.602189 -7.5454,-4.757812 -2.923,-1.15562 -6.0505,-1.76807 -9.3135,-1.76807 z m -287.8022,0.26953 v 4.376957 h 11.1079 v 41.403809 h 4.7124 v -41.403809 h 11.1094 v -4.376957 h -11.1094 -4.7124 z m 292.56,4.48975 h 7.4781 c 5.3022,0 9.7881,1.767613 13.459,5.166504 3.6708,3.534848 5.5751,7.952231 5.5751,13.186524 0,5.302271 -1.9043,9.721119 -5.5751,13.187988 -3.6709,3.466869 -8.1568,5.166504 -13.459,5.166504 h -7.4781 z m -85.9262,10.686036 c -4.3784,0 -8.0719,1.572364 -11.1504,4.650879 -3.0785,3.078514 -4.585,6.773087 -4.585,11.083007 0,4.378332 1.5065,8.072905 4.585,11.083008 1.4366,1.43664 3.0781,2.530625 4.9936,3.351563 1.9156,0.820937 4.1728,1.231933 6.8409,1.231933 2.668,0 5.268,-0.820528 7.8676,-2.462402 2.5997,-1.641874 4.5142,-3.969005 5.814,-6.842285 h -5.4727 c -1.0945,1.43664 -2.3933,2.53209 -3.9668,3.353027 -1.5734,0.820937 -3.2159,1.163086 -4.9262,1.163086 -2.5997,0 -4.9262,-0.820964 -6.9785,-2.53125 -2.0524,-1.641874 -3.3513,-3.762182 -3.7618,-6.361816 h 26.4756 v -2.53125 c 0,-4.104686 -1.6431,-7.663185 -4.79,-10.7417 -3.0785,-2.941691 -6.7722,-4.4458 -10.9453,-4.4458 z m -138.3428,0.01318 c -4.3875,0 -8.0903,1.577626 -11.1753,4.662598 -3.085,3.084972 -4.5923,6.78602 -4.5923,11.10498 0,4.387516 1.5073,8.090029 4.5923,11.106446 3.085,3.084972 6.8563,4.59375 11.1753,4.59375 4.2504,0 8.02,-1.508778 11.105,-4.59375 3.085,-3.016417 4.6626,-6.71893 4.6626,-11.106446 0,-4.31896 -1.5776,-8.020008 -4.6626,-11.10498 -3.085,-3.084972 -6.786,-4.662598 -11.105,-4.662598 z m 277.1558,0.04102 c -4.3506,0 -8.0211,1.56258 -11.0801,4.621582 -3.059,3.059002 -4.5542,6.730092 -4.5542,11.012695 0,4.350581 1.4952,8.021671 4.5542,11.012695 1.4275,1.427535 3.0595,2.515321 4.9629,3.331055 1.9034,0.815734 4.1457,1.223145 6.7968,1.223145 2.6512,0 5.2348,-0.814821 7.8179,-2.446289 2.5832,-1.631468 4.4872,-3.943271 5.7788,-6.79834 h -5.4389 c -1.0877,1.427534 -2.3784,2.515321 -3.9419,3.331054 -1.5635,0.815734 -3.1961,1.155762 -4.8955,1.155762 -2.5832,0 -4.8938,-0.815691 -6.9331,-2.515137 -2.0394,-1.631467 -3.3319,-3.739108 -3.7398,-6.322265 h 26.3086 v -2.515137 c 0,-4.07867 -1.6323,-7.613849 -4.7593,-10.672851 -3.059,-2.923047 -6.7298,-4.417969 -10.8764,-4.417969 z m -299.7115,0.165527 c -3.4277,0 -5.8954,1.918639 -7.4721,5.620606 l -0.2051,1.234863 v -6.23877 h -4.7988 v 30.164063 h 4.7988 v -15.082031 c 0,-2.467978 0.5484,-4.662298 1.7139,-6.650391 0.5484,-1.028324 1.3016,-1.918943 2.1928,-2.604492 0.8912,-0.685549 1.9887,-1.097168 3.2227,-1.097168 1.234,0 2.3985,0.54902 3.5639,1.508789 v -6.23877 c -0.9597,-0.411329 -1.9877,-0.616699 -3.0161,-0.616699 z m 42.0938,0.616699 12.6138,25.227539 -10.147,22.075196 h 5.8271 l 20.8418,-47.302735 h -5.3481 l -8.6382,20.223633 -9.665,-20.223633 z m 276.6518,0.03369 13.7989,32.765625 13.7329,-32.765625 h -5.1665 l -8.5664,22.229004 -8.6324,-22.229004 z m -157.8471,3.918457 c 2.5312,0 4.7895,0.820528 6.7734,2.462402 2.0524,1.710286 3.2837,3.830594 3.8994,6.361817 h -21.3457 c 0.2737,-1.231406 0.7529,-2.39321 1.437,-3.487793 2.1892,-3.557395 5.268,-5.336426 9.2359,-5.336426 z m -138.3428,0.02344 c 3.0164,0 5.5523,1.097454 7.7461,3.222657 2.1252,2.193757 3.2226,4.729676 3.2226,7.746093 0,3.016417 -1.0974,5.553508 -3.2226,7.678711 -2.1938,2.193758 -4.7297,3.222657 -7.7461,3.222657 -3.0164,0 -5.6224,-1.028899 -7.7476,-3.222657 -2.1937,-2.125203 -3.2212,-4.662294 -3.2212,-7.678711 0,-3.016417 1.0275,-5.552336 3.2212,-7.746093 2.1252,-2.125203 4.7312,-3.222657 7.7476,-3.222657 z m 277.1558,0 c 2.5151,0 4.7581,0.816286 6.7295,2.447754 2.0393,1.699446 3.2641,3.807086 3.8759,6.322266 h -21.2094 c 0.2719,-1.223601 0.7469,-2.37964 1.4267,-3.467285 2.1753,-3.534847 5.2345,-5.302735 9.1773,-5.302735 z m -99.8189,0.112793 c 2.9417,0 5.474,1.095014 7.5264,3.28418 2.0523,2.189166 3.0776,4.789318 3.0776,7.662598 0,2.941691 -1.0253,5.540378 -3.0776,7.661132 -2.0524,2.189166 -4.5847,3.28418 -7.5264,3.28418 -3.0101,0 -5.5414,-1.095014 -7.5937,-3.28418 -2.0524,-2.120754 -3.0103,-4.719441 -3.0103,-7.661132 0,-2.87328 0.9579,-5.473432 3.0103,-7.662598 2.0523,-2.189166 4.5836,-3.28418 7.5937,-3.28418 z" /><path
       id="rect12"
       style="fill:none;stroke:#ffffff;stroke-width:9.54023;stroke-linecap:round;stroke-linejoin:round;paint-order:stroke fill markers"
       d="m 1226.8383,-400.02396 h 287.8786 c 16.2847,0 29.3947,13.11006 29.3947,29.39474 v 166.21701 c 0,16.28469 -13.11,29.39474 -29.3947,29.39474 h -287.8786 c -16.2846,0 -29.3947,-13.11005 -29.3947,-29.39474 v -166.21701 c 0,-16.28468 13.1101,-29.39474 29.3947,-29.39474 z" /><path
       style="fill:none;fill-opacity:1;stroke:#ffffff;stroke-width:10.154;stroke-linecap:round;stroke-linejoin:miter;stroke-dasharray:none;stroke-dashoffset:0;stroke-opacity:1;paint-order:markers fill stroke"
       d="m 1279.7356,-144.62964 h 182.0841 z"
       id="path12" /><path
       style="fill:none;fill-opacity:1;stroke:#ffffff;stroke-width:12.054;stroke-linecap:round;stroke-linejoin:miter;stroke-dasharray:none;stroke-dashoffset:0;stroke-opacity:1;paint-order:markers fill stroke"
       d="m 1255.9424,-281.09611 57.0389,-60.40002 z"
       id="path12-3"
       sodipodi:nodetypes="ccc" /><path
       style="fill:none;fill-opacity:1;stroke:#ffffff;stroke-width:12.054;stroke-linecap:round;stroke-linejoin:miter;stroke-dasharray:none;stroke-dashoffset:0;stroke-opacity:1;paint-order:markers fill stroke"
       d="m 1321.8979,-229.7597 -66.3547,-59.47391 z"
       id="path12-3-9"
       sodipodi:nodetypes="ccc" /><path
       style="fill:none;fill-opacity:1;stroke:#ffffff;stroke-width:12.054;stroke-linecap:round;stroke-linejoin:miter;stroke-dasharray:none;stroke-dashoffset:0;stroke-opacity:1;paint-order:markers fill stroke"
       d="m 1485.3207,-286.1229 -17.0735,-15.03943 -45.266,-39.87318 z"
       id="path12-3-4"
       sodipodi:nodetypes="cccc" /><path
       style="fill:none;fill-opacity:1;stroke:#ffffff;stroke-width:12.054;stroke-linecap:round;stroke-linejoin:miter;stroke-dasharray:none;stroke-dashoffset:0;stroke-opacity:1;paint-order:markers fill stroke"
       d="m 1428.1094,-232.95925 56.8623,-61.30345 z"
       id="path12-3-9-8"
       sodipodi:nodetypes="ccc" /><path
       style="fill:#56a7a8;fill-opacity:1;stroke:none;stroke-width:0;stroke-linecap:butt;stroke-linejoin:miter;stroke-dasharray:none;stroke-dashoffset:0;stroke-opacity:1;paint-order:normal"
       d="m 1368.5,-274.99433 60.3553,-69.12054 0.2504,-18.28188 -64.3622,74.37971 z"
       id="path13-4"
       sodipodi:nodetypes="ccccc" /><path
       style="fill:#ebea1a;fill-opacity:1;stroke:none;stroke-width:0;stroke-linecap:butt;stroke-linejoin:miter;stroke-dasharray:none;stroke-dashoffset:0;stroke-opacity:1;paint-order:normal"
       d="m 1312.7895,-210.86775 57.35,-66.1153 -0.7513,-16.27839 -56.3483,64.61268 z"
       id="path13"
       sodipodi:nodetypes="ccccc" /></g></svg>
