<?xml version="1.0" encoding="UTF-8"?>
<svg width="960" height="540" fill="none" stroke-linecap="square" stroke-miterlimit="10" version="1.1" viewBox="0 0 960 540" xml:space="preserve" xmlns="http://www.w3.org/2000/svg" xmlns:xlink="http://www.w3.org/1999/xlink"><defs><clipPath id="co"><path d="m0 0h960v540h-960z"/></clipPath><filter id="at" filterUnits="userSpaceOnUse"><feGaussianBlur in="SourceAlpha" result="blur" stdDeviation="4.5"/><feComponentTransfer color-interpolation-filters="sRGB" in="blur"><feFuncR slope="0" type="linear"/><feFuncG intercept="0.9137255" slope="0" type="linear"/><feFuncB intercept="1.0" slope="0" type="linear"/><feFuncA slope="1.0" type="linear"/></feComponentTransfer></filter><filter id="ai" filterUnits="userSpaceOnUse"><feGaussianBlur in="SourceAlpha" result="blur" stdDeviation="4.5"/><feComponentTransfer color-interpolation-filters="sRGB" in="blur"><feFuncR slope="0" type="linear"/><feFuncG intercept="0.9137255" slope="0" type="linear"/><feFuncB intercept="1.0" slope="0" type="linear"/><feFuncA slope="1.0" type="linear"/></feComponentTransfer></filter><filter id="x" filterUnits="userSpaceOnUse"><feGaussianBlur in="SourceAlpha" result="blur" stdDeviation="4.5"/><feComponentTransfer color-interpolation-filters="sRGB" in="blur"><feFuncR slope="0" type="linear"/><feFuncG intercept="0.9137255" slope="0" type="linear"/><feFuncB intercept="1.0" slope="0" type="linear"/><feFuncA slope="1.0" type="linear"/></feComponentTransfer></filter><filter id="m" filterUnits="userSpaceOnUse"><feGaussianBlur in="SourceAlpha" result="blur" stdDeviation="16.0"/><feComponentTransfer color-interpolation-filters="sRGB" in="blur"><feFuncR slope="0" type="linear"/><feFuncG intercept="0.9137255" slope="0" type="linear"/><feFuncB intercept="1.0" slope="0" type="linear"/><feFuncA slope="0.7" type="linear"/></feComponentTransfer></filter><filter id="e" filterUnits="userSpaceOnUse"><feGaussianBlur in="SourceAlpha" result="blur" stdDeviation="16.0"/><feComponentTransfer color-interpolation-filters="sRGB" in="blur"><feFuncR slope="0" type="linear"/><feFuncG intercept="0.9137255" slope="0" type="linear"/><feFuncB intercept="1.0" slope="0" type="linear"/><feFuncA slope="0.7" type="linear"/></feComponentTransfer></filter><filter id="d" filterUnits="userSpaceOnUse"><feGaussianBlur in="SourceAlpha" result="blur" stdDeviation="4.5"/><feComponentTransfer color-interpolation-filters="sRGB" in="blur"><feFuncR slope="0" type="linear"/><feFuncG intercept="0.9137255" slope="0" type="linear"/><feFuncB intercept="1.0" slope="0" type="linear"/><feFuncA slope="1.0" type="linear"/></feComponentTransfer></filter><filter id="c" filterUnits="userSpaceOnUse"><feGaussianBlur in="SourceAlpha" result="blur" stdDeviation="16.0"/><feComponentTransfer color-interpolation-filters="sRGB" in="blur"><feFuncR slope="0" type="linear"/><feFuncG intercept="0.9137255" slope="0" type="linear"/><feFuncB intercept="1.0" slope="0" type="linear"/><feFuncA slope="0.7" type="linear"/></feComponentTransfer></filter><filter id="b" filterUnits="userSpaceOnUse"><feGaussianBlur in="SourceAlpha" result="blur" stdDeviation="16.0"/><feComponentTransfer color-interpolation-filters="sRGB" in="blur"><feFuncR slope="0" type="linear"/><feFuncG intercept="0.9137255" slope="0" type="linear"/><feFuncB intercept="1.0" slope="0" type="linear"/><feFuncA slope="0.7" type="linear"/></feComponentTransfer></filter><filter id="a" filterUnits="userSpaceOnUse"><feGaussianBlur in="SourceAlpha" result="blur" stdDeviation="16.0"/><feComponentTransfer color-interpolation-filters="sRGB" in="blur"><feFuncR slope="0" type="linear"/><feFuncG intercept="0.9137255" slope="0" type="linear"/><feFuncB intercept="1.0" slope="0" type="linear"/><feFuncA slope="0.7" type="linear"/></feComponentTransfer></filter><filter id="as" filterUnits="userSpaceOnUse"><feGaussianBlur in="SourceAlpha" result="blur" stdDeviation="16.0"/><feComponentTransfer color-interpolation-filters="sRGB" in="blur"><feFuncR slope="0" type="linear"/><feFuncG intercept="0.9137255" slope="0" type="linear"/><feFuncB intercept="1.0" slope="0" type="linear"/><feFuncA slope="0.7" type="linear"/></feComponentTransfer></filter><filter id="ar" filterUnits="userSpaceOnUse"><feGaussianBlur in="SourceAlpha" result="blur" stdDeviation="16.0"/><feComponentTransfer color-interpolation-filters="sRGB" in="blur"><feFuncR slope="0" type="linear"/><feFuncG intercept="0.9137255" slope="0" type="linear"/><feFuncB intercept="1.0" slope="0" type="linear"/><feFuncA slope="0.7" type="linear"/></feComponentTransfer></filter><filter id="aq" filterUnits="userSpaceOnUse"><feGaussianBlur in="SourceAlpha" result="blur" stdDeviation="16.0"/><feComponentTransfer color-interpolation-filters="sRGB" in="blur"><feFuncR slope="0" type="linear"/><feFuncG intercept="0.9137255" slope="0" type="linear"/><feFuncB intercept="1.0" slope="0" type="linear"/><feFuncA slope="0.7" type="linear"/></feComponentTransfer></filter><filter id="ap" filterUnits="userSpaceOnUse"><feGaussianBlur in="SourceAlpha" result="blur" stdDeviation="16.0"/><feComponentTransfer color-interpolation-filters="sRGB" in="blur"><feFuncR slope="0" type="linear"/><feFuncG intercept="0.9137255" slope="0" type="linear"/><feFuncB intercept="1.0" slope="0" type="linear"/><feFuncA slope="0.7" type="linear"/></feComponentTransfer></filter><filter id="ao" filterUnits="userSpaceOnUse"><feGaussianBlur in="SourceAlpha" result="blur" stdDeviation="16.0"/><feComponentTransfer color-interpolation-filters="sRGB" in="blur"><feFuncR slope="0" type="linear"/><feFuncG intercept="0.9137255" slope="0" type="linear"/><feFuncB intercept="1.0" slope="0" type="linear"/><feFuncA slope="0.7" type="linear"/></feComponentTransfer></filter><filter id="an" filterUnits="userSpaceOnUse"><feGaussianBlur in="SourceAlpha" result="blur" stdDeviation="16.0"/><feComponentTransfer color-interpolation-filters="sRGB" in="blur"><feFuncR slope="0" type="linear"/><feFuncG intercept="0.9137255" slope="0" type="linear"/><feFuncB intercept="1.0" slope="0" type="linear"/><feFuncA slope="0.7" type="linear"/></feComponentTransfer></filter><filter id="am" filterUnits="userSpaceOnUse"><feGaussianBlur in="SourceAlpha" result="blur" stdDeviation="16.0"/><feComponentTransfer color-interpolation-filters="sRGB" in="blur"><feFuncR slope="0" type="linear"/><feFuncG intercept="0.9137255" slope="0" type="linear"/><feFuncB intercept="1.0" slope="0" type="linear"/><feFuncA slope="0.7" type="linear"/></feComponentTransfer></filter><filter id="al" filterUnits="userSpaceOnUse"><feGaussianBlur in="SourceAlpha" result="blur" stdDeviation="4.5"/><feComponentTransfer color-interpolation-filters="sRGB" in="blur"><feFuncR slope="0" type="linear"/><feFuncG intercept="0.9137255" slope="0" type="linear"/><feFuncB intercept="1.0" slope="0" type="linear"/><feFuncA slope="1.0" type="linear"/></feComponentTransfer></filter><filter id="ak" filterUnits="userSpaceOnUse"><feGaussianBlur in="SourceAlpha" result="blur" stdDeviation="10.0"/><feComponentTransfer color-interpolation-filters="sRGB" in="blur"><feFuncR slope="0" type="linear"/><feFuncG intercept="0.9137255" slope="0" type="linear"/><feFuncB intercept="1.0" slope="0" type="linear"/><feFuncA slope="1.0" type="linear"/></feComponentTransfer></filter><filter id="aj" filterUnits="userSpaceOnUse"><feGaussianBlur in="SourceAlpha" result="blur" stdDeviation="10.0"/><feComponentTransfer color-interpolation-filters="sRGB" in="blur"><feFuncR slope="0" type="linear"/><feFuncG intercept="0.9137255" slope="0" type="linear"/><feFuncB intercept="1.0" slope="0" type="linear"/><feFuncA slope="1.0" type="linear"/></feComponentTransfer></filter><filter id="ah" filterUnits="userSpaceOnUse"><feGaussianBlur in="SourceAlpha" result="blur" stdDeviation="4.5"/><feComponentTransfer color-interpolation-filters="sRGB" in="blur"><feFuncR slope="0" type="linear"/><feFuncG intercept="0.9137255" slope="0" type="linear"/><feFuncB intercept="1.0" slope="0" type="linear"/><feFuncA slope="1.0" type="linear"/></feComponentTransfer></filter><filter id="ag" filterUnits="userSpaceOnUse"><feGaussianBlur in="SourceAlpha" result="blur" stdDeviation="4.5"/><feComponentTransfer color-interpolation-filters="sRGB" in="blur"><feFuncR slope="0" type="linear"/><feFuncG intercept="0.9137255" slope="0" type="linear"/><feFuncB intercept="1.0" slope="0" type="linear"/><feFuncA slope="1.0" type="linear"/></feComponentTransfer></filter><filter id="af" filterUnits="userSpaceOnUse"><feGaussianBlur in="SourceAlpha" result="blur" stdDeviation="4.5"/><feComponentTransfer color-interpolation-filters="sRGB" in="blur"><feFuncR slope="0" type="linear"/><feFuncG intercept="0.9137255" slope="0" type="linear"/><feFuncB intercept="1.0" slope="0" type="linear"/><feFuncA slope="1.0" type="linear"/></feComponentTransfer></filter><filter id="ae" filterUnits="userSpaceOnUse"><feGaussianBlur in="SourceAlpha" result="blur" stdDeviation="16.0"/><feComponentTransfer color-interpolation-filters="sRGB" in="blur"><feFuncR slope="0" type="linear"/><feFuncG intercept="0.9137255" slope="0" type="linear"/><feFuncB intercept="1.0" slope="0" type="linear"/><feFuncA slope="0.7" type="linear"/></feComponentTransfer></filter><filter id="ad" filterUnits="userSpaceOnUse"><feGaussianBlur in="SourceAlpha" result="blur" stdDeviation="16.0"/><feComponentTransfer color-interpolation-filters="sRGB" in="blur"><feFuncR slope="0" type="linear"/><feFuncG intercept="0.9137255" slope="0" type="linear"/><feFuncB intercept="1.0" slope="0" type="linear"/><feFuncA slope="0.7" type="linear"/></feComponentTransfer></filter><filter id="ac" filterUnits="userSpaceOnUse"><feGaussianBlur in="SourceAlpha" result="blur" stdDeviation="16.0"/><feComponentTransfer color-interpolation-filters="sRGB" in="blur"><feFuncR slope="0" type="linear"/><feFuncG intercept="0.9137255" slope="0" type="linear"/><feFuncB intercept="1.0" slope="0" type="linear"/><feFuncA slope="0.7" type="linear"/></feComponentTransfer></filter><filter id="ab" filterUnits="userSpaceOnUse"><feGaussianBlur in="SourceAlpha" result="blur" stdDeviation="16.0"/><feComponentTransfer color-interpolation-filters="sRGB" in="blur"><feFuncR slope="0" type="linear"/><feFuncG intercept="0.9137255" slope="0" type="linear"/><feFuncB intercept="1.0" slope="0" type="linear"/><feFuncA slope="0.7" type="linear"/></feComponentTransfer></filter><filter id="aa" filterUnits="userSpaceOnUse"><feGaussianBlur in="SourceAlpha" result="blur" stdDeviation="16.0"/><feComponentTransfer color-interpolation-filters="sRGB" in="blur"><feFuncR slope="0" type="linear"/><feFuncG intercept="0.9137255" slope="0" type="linear"/><feFuncB intercept="1.0" slope="0" type="linear"/><feFuncA slope="0.7" type="linear"/></feComponentTransfer></filter><filter id="z" filterUnits="userSpaceOnUse"><feGaussianBlur in="SourceAlpha" result="blur" stdDeviation="16.0"/><feComponentTransfer color-interpolation-filters="sRGB" in="blur"><feFuncR slope="0" type="linear"/><feFuncG intercept="0.9137255" slope="0" type="linear"/><feFuncB intercept="1.0" slope="0" type="linear"/><feFuncA slope="0.7" type="linear"/></feComponentTransfer></filter><filter id="y" filterUnits="userSpaceOnUse"><feGaussianBlur in="SourceAlpha" result="blur" stdDeviation="4.5"/><feComponentTransfer color-interpolation-filters="sRGB" in="blur"><feFuncR slope="0" type="linear"/><feFuncG intercept="0.9137255" slope="0" type="linear"/><feFuncB intercept="1.0" slope="0" type="linear"/><feFuncA slope="1.0" type="linear"/></feComponentTransfer></filter><filter id="w" filterUnits="userSpaceOnUse"><feGaussianBlur in="SourceAlpha" result="blur" stdDeviation="10.0"/><feComponentTransfer color-interpolation-filters="sRGB" in="blur"><feFuncR slope="0" type="linear"/><feFuncG intercept="0.9137255" slope="0" type="linear"/><feFuncB intercept="1.0" slope="0" type="linear"/><feFuncA slope="1.0" type="linear"/></feComponentTransfer></filter><filter id="v" filterUnits="userSpaceOnUse"><feGaussianBlur in="SourceAlpha" result="blur" stdDeviation="4.5"/><feComponentTransfer color-interpolation-filters="sRGB" in="blur"><feFuncR slope="0" type="linear"/><feFuncG intercept="0.9137255" slope="0" type="linear"/><feFuncB intercept="1.0" slope="0" type="linear"/><feFuncA slope="1.0" type="linear"/></feComponentTransfer></filter><filter id="u" filterUnits="userSpaceOnUse"><feGaussianBlur in="SourceAlpha" result="blur" stdDeviation="10.0"/><feComponentTransfer color-interpolation-filters="sRGB" in="blur"><feFuncR slope="0" type="linear"/><feFuncG intercept="0.9137255" slope="0" type="linear"/><feFuncB intercept="1.0" slope="0" type="linear"/><feFuncA slope="1.0" type="linear"/></feComponentTransfer></filter><filter id="t" filterUnits="userSpaceOnUse"><feGaussianBlur in="SourceAlpha" result="blur" stdDeviation="4.5"/><feComponentTransfer color-interpolation-filters="sRGB" in="blur"><feFuncR slope="0" type="linear"/><feFuncG intercept="0.9137255" slope="0" type="linear"/><feFuncB intercept="1.0" slope="0" type="linear"/><feFuncA slope="1.0" type="linear"/></feComponentTransfer></filter><filter id="s" filterUnits="userSpaceOnUse"><feGaussianBlur in="SourceAlpha" result="blur" stdDeviation="16.0"/><feComponentTransfer color-interpolation-filters="sRGB" in="blur"><feFuncR slope="0" type="linear"/><feFuncG intercept="0.9137255" slope="0" type="linear"/><feFuncB intercept="1.0" slope="0" type="linear"/><feFuncA slope="0.7" type="linear"/></feComponentTransfer></filter><filter id="r" filterUnits="userSpaceOnUse"><feGaussianBlur in="SourceAlpha" result="blur" stdDeviation="16.0"/><feComponentTransfer color-interpolation-filters="sRGB" in="blur"><feFuncR slope="0" type="linear"/><feFuncG intercept="0.9137255" slope="0" type="linear"/><feFuncB intercept="1.0" slope="0" type="linear"/><feFuncA slope="0.7" type="linear"/></feComponentTransfer></filter><filter id="q" filterUnits="userSpaceOnUse"><feGaussianBlur in="SourceAlpha" result="blur" stdDeviation="4.5"/><feComponentTransfer color-interpolation-filters="sRGB" in="blur"><feFuncR slope="0" type="linear"/><feFuncG intercept="0.9137255" slope="0" type="linear"/><feFuncB intercept="1.0" slope="0" type="linear"/><feFuncA slope="1.0" type="linear"/></feComponentTransfer></filter><filter id="p" filterUnits="userSpaceOnUse"><feGaussianBlur in="SourceAlpha" result="blur" stdDeviation="16.0"/><feComponentTransfer color-interpolation-filters="sRGB" in="blur"><feFuncR slope="0" type="linear"/><feFuncG intercept="0.9137255" slope="0" type="linear"/><feFuncB intercept="1.0" slope="0" type="linear"/><feFuncA slope="0.7" type="linear"/></feComponentTransfer></filter><filter id="o" filterUnits="userSpaceOnUse"><feGaussianBlur in="SourceAlpha" result="blur" stdDeviation="16.0"/><feComponentTransfer color-interpolation-filters="sRGB" in="blur"><feFuncR slope="0" type="linear"/><feFuncG intercept="0.9137255" slope="0" type="linear"/><feFuncB intercept="1.0" slope="0" type="linear"/><feFuncA slope="0.7" type="linear"/></feComponentTransfer></filter><filter id="n" filterUnits="userSpaceOnUse"><feGaussianBlur in="SourceAlpha" result="blur" stdDeviation="16.0"/><feComponentTransfer color-interpolation-filters="sRGB" in="blur"><feFuncR slope="0" type="linear"/><feFuncG intercept="0.9137255" slope="0" type="linear"/><feFuncB intercept="1.0" slope="0" type="linear"/><feFuncA slope="0.7" type="linear"/></feComponentTransfer></filter><filter id="l" filterUnits="userSpaceOnUse"><feGaussianBlur in="SourceAlpha" result="blur" stdDeviation="16.0"/><feComponentTransfer color-interpolation-filters="sRGB" in="blur"><feFuncR slope="0" type="linear"/><feFuncG intercept="0.9137255" slope="0" type="linear"/><feFuncB intercept="1.0" slope="0" type="linear"/><feFuncA slope="0.7" type="linear"/></feComponentTransfer></filter><filter id="k" filterUnits="userSpaceOnUse"><feGaussianBlur in="SourceAlpha" result="blur" stdDeviation="16.0"/><feComponentTransfer color-interpolation-filters="sRGB" in="blur"><feFuncR slope="0" type="linear"/><feFuncG intercept="0.9137255" slope="0" type="linear"/><feFuncB intercept="1.0" slope="0" type="linear"/><feFuncA slope="0.7" type="linear"/></feComponentTransfer></filter><filter id="j" filterUnits="userSpaceOnUse"><feGaussianBlur in="SourceAlpha" result="blur" stdDeviation="16.0"/><feComponentTransfer color-interpolation-filters="sRGB" in="blur"><feFuncR slope="0" type="linear"/><feFuncG intercept="0.9137255" slope="0" type="linear"/><feFuncB intercept="1.0" slope="0" type="linear"/><feFuncA slope="0.7" type="linear"/></feComponentTransfer></filter><filter id="i" filterUnits="userSpaceOnUse"><feGaussianBlur in="SourceAlpha" result="blur" stdDeviation="16.0"/><feComponentTransfer color-interpolation-filters="sRGB" in="blur"><feFuncR slope="0" type="linear"/><feFuncG intercept="0.9137255" slope="0" type="linear"/><feFuncB intercept="1.0" slope="0" type="linear"/><feFuncA slope="0.7" type="linear"/></feComponentTransfer></filter><filter id="h" filterUnits="userSpaceOnUse"><feGaussianBlur in="SourceAlpha" result="blur" stdDeviation="16.0"/><feComponentTransfer color-interpolation-filters="sRGB" in="blur"><feFuncR slope="0" type="linear"/><feFuncG intercept="0.9137255" slope="0" type="linear"/><feFuncB intercept="1.0" slope="0" type="linear"/><feFuncA slope="0.7" type="linear"/></feComponentTransfer></filter><filter id="g" filterUnits="userSpaceOnUse"><feGaussianBlur in="SourceAlpha" result="blur" stdDeviation="16.0"/><feComponentTransfer color-interpolation-filters="sRGB" in="blur"><feFuncR slope="0" type="linear"/><feFuncG intercept="0.9137255" slope="0" type="linear"/><feFuncB intercept="1.0" slope="0" type="linear"/><feFuncA slope="0.7" type="linear"/></feComponentTransfer></filter><filter id="f" filterUnits="userSpaceOnUse"><feGaussianBlur in="SourceAlpha" result="blur" stdDeviation="16.0"/><feComponentTransfer color-interpolation-filters="sRGB" in="blur"><feFuncR slope="0" type="linear"/><feFuncG intercept="0.9137255" slope="0" type="linear"/><feFuncB intercept="1.0" slope="0" type="linear"/><feFuncA slope="0.7" type="linear"/></feComponentTransfer></filter></defs><clipPath><path d="m0 0h960v540h-960z"/></clipPath><g clip-path="url(#co)"><path d="m0 0h960v540h-960z" fill="#000304" fill-rule="evenodd"/><g filter="url(#at)"><use xlink:href="#cn"/></g><g id="cn"><path d="m-382.2 658.7h429.3v-349.7l-77.47-79.57h-351.8z" fill="#000" fill-opacity="0" fill-rule="evenodd"/><path d="m-382.2 658.7h429.3v-349.7l-77.47-79.57h-351.8z" fill-rule="evenodd" stroke="#00e9ff" stroke-linecap="butt" stroke-miterlimit="20.37" stroke-width="3"/></g><g filter="url(#ai)"><use xlink:href="#cc"/></g><g id="cc"><path d="m-382.2 658.7h429.3v-349.7l-77.47-79.57h-351.8z" fill="#000" fill-opacity="0" fill-rule="evenodd"/><path d="m-382.2 658.7h429.3v-349.7l-77.47-79.57h-351.8z" fill-rule="evenodd" stroke="#00e9ff" stroke-linecap="butt" stroke-miterlimit="20.37" stroke-width="3"/></g><g filter="url(#x)"><use transform="translate(2)" xlink:href="#br"/></g><g id="br"><path d="m-271.7 162.1v59.1l36.58 36.58v99.19l-36.58 36.23v685.9h235.3l132.3-130.5v-667.9l-55.92-55.58v-105.2l60.85-60.85v-112.9l-42.21-41.87h-38.34l-23.21 22.87h-48.89l-26.74-26.37h-33.06" fill="#000" fill-opacity="0" fill-rule="evenodd"/><path d="m-271.7 162.1v59.1l36.58 36.58v99.19l-36.58 36.23v685.9h235.3l132.3-130.5v-667.9l-55.92-55.58v-105.2l60.85-60.85v-112.9l-42.21-41.87h-38.34l-23.21 22.87h-48.89l-26.74-26.37h-33.06" fill-rule="evenodd" stroke="#00e9ff" stroke-linecap="round" stroke-linejoin="round" stroke-width="3"/></g><g filter="url(#m)"><use transform="translate(2)" xlink:href="#bg"/></g><g id="bg"><path d="m81.8 394h28.13v-28.13h-28.13z" fill="#00e9ff" fill-rule="evenodd"/></g><g filter="url(#e)"><use transform="translate(2)" xlink:href="#ay"/></g><g id="ay"><path d="m81.8 745.4h28.13v-268h-28.13z" fill="#00e9ff" fill-rule="evenodd"/></g><g filter="url(#d)"><use xlink:href="#ax"/></g><g id="ax"><path d="m-271.7 162.1v59.1l36.58 36.58v99.19l-36.58 36.23v685.9h235.3l132.3-130.5v-667.9l-55.92-55.58v-105.2l60.85-60.85v-112.9l-42.21-41.87h-38.34l-23.21 22.87h-48.89l-26.74-26.37h-33.06" fill="#000" fill-opacity="0" fill-rule="evenodd"/><path d="m-271.7 162.1v59.1l36.58 36.58v99.19l-36.58 36.23v685.9h235.3l132.3-130.5v-667.9l-55.92-55.58v-105.2l60.85-60.85v-112.9l-42.21-41.87h-38.34l-23.21 22.87h-48.89l-26.74-26.37h-33.06" fill-rule="evenodd" stroke="#00e9ff" stroke-linecap="round" stroke-linejoin="round" stroke-width="3"/></g><g filter="url(#c)"><use transform="translate(2)" xlink:href="#aw"/></g><g id="aw"><path d="m81.8 394h28.13v-28.13h-28.13z" fill="#00e9ff" fill-rule="evenodd"/></g><g filter="url(#b)"><use transform="translate(2)" xlink:href="#av"/></g><g id="av"><path d="m81.8 745.4h28.13v-268h-28.13z" fill="#00e9ff" fill-rule="evenodd"/></g><g filter="url(#a)"><use transform="translate(2)" xlink:href="#au"/></g><g id="au"><path d="m-139.8-85.23h28.13v-28.13h-28.13z" fill="#00e9ff" fill-rule="evenodd"/></g><g filter="url(#as)"><use transform="translate(2)" xlink:href="#cm"/></g><g id="cm"><path d="m-43.43-58.96h28.13v-28.13h-28.13z" fill="#00e9ff" fill-rule="evenodd"/></g><g filter="url(#ar)"><use transform="translate(2)" xlink:href="#cl"/></g><g id="cl"><path d="m-285.8 174.1h28.13v-28.13h-28.13z" fill="#00e9ff" fill-rule="evenodd"/></g><g filter="url(#aq)"><use transform="translate(2)" xlink:href="#ck"/></g><g id="ck"><path d="m-285.8 1011h28.14v-268.2h-28.14z" fill="#00e9ff" fill-rule="evenodd"/></g><g filter="url(#ap)"><use transform="translate(2)" xlink:href="#cj"/></g><g id="cj"><path d="m-285.8 1011h28.14v-268.2h-28.14z" fill="#00e9ff" fill-rule="evenodd"/></g><g filter="url(#ao)"><use transform="translate(2)" xlink:href="#ci"/></g><g id="ci"><path d="m-285.8 174.1h28.13v-28.13h-28.13z" fill="#00e9ff" fill-rule="evenodd"/></g><g filter="url(#an)"><use transform="translate(2)" xlink:href="#ch"/></g><g id="ch"><path d="m-139.8-85.23h28.13v-28.13h-28.13z" fill="#00e9ff" fill-rule="evenodd"/></g><g filter="url(#am)"><use transform="translate(2)" xlink:href="#cg"/></g><g id="cg"><path d="m-43.43-58.96h28.13v-28.13h-28.13z" fill="#00e9ff" fill-rule="evenodd"/></g><g filter="url(#al)"><use transform="translate(2)" xlink:href="#cf"/></g><g id="cf"><path d="m90.02 141.2 32.51-33.91-8.333-50.5 28.79-26.52 33.59 16.52 29.04-28.69" fill="#000" fill-opacity="0" fill-rule="evenodd"/><path d="m90.02 141.2 32.51-33.91-8.333-50.5 28.79-26.52 33.59 16.52 29.04-28.69" fill-rule="evenodd" stroke="#00e9ff" stroke-linecap="butt" stroke-linejoin="round" stroke-width="3"/></g><g filter="url(#ak)"><use xlink:href="#ce"/></g><g id="ce"><path d="m78.41 145.7c0-4.366 3.539-7.906 7.906-7.906 2.097 0 4.107 0.8329 5.59 2.315 1.483 1.483 2.315 3.493 2.315 5.59 0 4.366-3.539 7.906-7.906 7.906-4.366 0-7.906-3.539-7.906-7.906z" fill="#00e9ff" fill-rule="evenodd"/><path d="m78.41 145.7c0-4.366 3.539-7.906 7.906-7.906 2.097 0 4.107 0.8329 5.59 2.315 1.483 1.483 2.315 3.493 2.315 5.59 0 4.366-3.539 7.906-7.906 7.906-4.366 0-7.906-3.539-7.906-7.906z" fill-rule="evenodd" stroke="#00e9ff" stroke-linecap="butt" stroke-linejoin="round" stroke-width="2"/></g><g filter="url(#aj)"><use xlink:href="#cd"/></g><g id="cd"><path d="m197.8 18.32c0-4.366 3.539-7.906 7.906-7.906 2.097 0 4.107 0.8329 5.59 2.315 1.483 1.483 2.315 3.493 2.315 5.59 0 4.366-3.539 7.906-7.906 7.906s-7.906-3.539-7.906-7.906z" fill="#00e9ff" fill-rule="evenodd"/><path d="m197.8 18.32c0-4.366 3.539-7.906 7.906-7.906 2.097 0 4.107 0.8329 5.59 2.315 1.483 1.483 2.315 3.493 2.315 5.59 0 4.366-3.539 7.906-7.906 7.906s-7.906-3.539-7.906-7.906z" fill-rule="evenodd" stroke="#00e9ff" stroke-linecap="butt" stroke-linejoin="round" stroke-width="2"/></g><g filter="url(#ah)"><use xlink:href="#cb"/></g><g id="cb"><path d="m90.02 141.2 32.68-33.59-8.987-50.56 29.21-26.97 33.71 16.85 29.21-29.21" fill="#000" fill-opacity="0" fill-rule="evenodd"/><path d="m90.02 141.2 32.68-33.59-8.987-50.56 29.21-26.97 33.71 16.85 29.21-29.21" fill-rule="evenodd" stroke="#00e9ff" stroke-linecap="butt" stroke-linejoin="round" stroke-width="3"/></g><g filter="url(#ag)"><use xlink:href="#ca"/></g><g id="ca"><path d="m1297 697.5h-429.3v-349.7l77.47-79.57h351.8z" fill="#000" fill-opacity="0" fill-rule="evenodd"/><path d="m1297 697.5h-429.3v-349.7l77.47-79.57h351.8z" fill-rule="evenodd" stroke="#00e9ff" stroke-linecap="butt" stroke-miterlimit="20.37" stroke-width="3"/></g><g filter="url(#af)"><use xlink:href="#bz"/></g><g id="bz"><path d="m1297 697.5h-429.3v-349.7l77.47-79.57h351.8z" fill="#000" fill-opacity="0" fill-rule="evenodd"/><path d="m1297 697.5h-429.3v-349.7l77.47-79.57h351.8z" fill-rule="evenodd" stroke="#00e9ff" stroke-linecap="butt" stroke-miterlimit="20.37" stroke-width="3"/></g><g filter="url(#ae)"><use transform="translate(2)" xlink:href="#by"/></g><g id="by"><path d="m853.5 443.9h28.14v-41.86h-28.14z" fill="#00e9ff" fill-rule="evenodd"/></g><g filter="url(#ad)"><use transform="translate(2)" xlink:href="#bx"/></g><g id="bx"><path d="m853.5 544.6h28.14v-41.86h-28.14z" fill="#00e9ff" fill-rule="evenodd"/></g><g filter="url(#ac)"><use transform="translate(2)" xlink:href="#bw"/></g><g id="bw"><path d="m853.5 645.3h28.14v-41.86h-28.14z" fill="#00e9ff" fill-rule="evenodd"/></g><g filter="url(#ab)"><use transform="translate(2)" xlink:href="#bv"/></g><g id="bv"><path d="m853.5 443.9h28.14v-41.86h-28.14z" fill="#00e9ff" fill-rule="evenodd"/></g><g filter="url(#aa)"><use transform="translate(2)" xlink:href="#bu"/></g><g id="bu"><path d="m853.5 544.6h28.14v-41.86h-28.14z" fill="#00e9ff" fill-rule="evenodd"/></g><g filter="url(#z)"><use transform="translate(2)" xlink:href="#bt"/></g><g id="bt"><path d="m853.5 645.3h28.14v-41.86h-28.14z" fill="#00e9ff" fill-rule="evenodd"/></g><g filter="url(#y)"><use xlink:href="#bs"/></g><g id="bs"><path d="m1172-229.1-203 203v217.1l-48.69 48.55" fill="#000" fill-opacity="0" fill-rule="evenodd"/><path d="m1172-229.1-203 203v217.1l-48.69 48.55" fill-rule="evenodd" stroke="#00e9ff" stroke-linecap="butt" stroke-miterlimit="20.37" stroke-width="3"/></g><g filter="url(#w)"><use xlink:href="#bq"/></g><g id="bq"><path d="m909.1 243.4c0-4.366 3.539-7.906 7.906-7.906 2.097 0 4.107 0.8329 5.59 2.315 1.483 1.483 2.316 3.493 2.316 5.59 0 4.366-3.539 7.906-7.906 7.906s-7.906-3.539-7.906-7.906z" fill="#00e9ff" fill-rule="evenodd"/><path d="m909.1 243.4c0-4.366 3.539-7.906 7.906-7.906 2.097 0 4.107 0.8329 5.59 2.315 1.483 1.483 2.316 3.493 2.316 5.59 0 4.366-3.539 7.906-7.906 7.906s-7.906-3.539-7.906-7.906z" fill-rule="evenodd" stroke="#00e9ff" stroke-linecap="butt" stroke-linejoin="round" stroke-width="2"/></g><g filter="url(#v)"><use xlink:href="#bp"/></g><g id="bp"><path d="m1172-229.1-203 203v217.1l-48.69 48.55" fill="#000" fill-opacity="0" fill-rule="evenodd"/><path d="m1172-229.1-203 203v217.1l-48.69 48.55" fill-rule="evenodd" stroke="#00e9ff" stroke-linecap="butt" stroke-miterlimit="20.37" stroke-width="3"/></g><g filter="url(#u)"><use xlink:href="#bo"/></g><g id="bo"><path d="m909.1 243.4c0-4.366 3.539-7.906 7.906-7.906 2.097 0 4.107 0.8329 5.59 2.315 1.483 1.483 2.316 3.493 2.316 5.59 0 4.366-3.539 7.906-7.906 7.906s-7.906-3.539-7.906-7.906z" fill="#00e9ff" fill-rule="evenodd"/><path d="m909.1 243.4c0-4.366 3.539-7.906 7.906-7.906 2.097 0 4.107 0.8329 5.59 2.315 1.483 1.483 2.316 3.493 2.316 5.59 0 4.366-3.539 7.906-7.906 7.906s-7.906-3.539-7.906-7.906z" fill-rule="evenodd" stroke="#00e9ff" stroke-linecap="butt" stroke-linejoin="round" stroke-width="2"/></g><g filter="url(#t)"><use transform="translate(2)" xlink:href="#bn"/></g><g id="bn"><path d="m499.1-195.4v-59.1l36.58-36.58v-99.19l-36.58-36.23v-685.9h235.3l132.3 130.5v667.9l-55.92 55.58v105.2l60.85 60.85v112.9l-42.21 41.87h-38.34l-23.21-22.87h-48.89l-26.74 26.37h-33.06" fill="#000" fill-opacity="0" fill-rule="evenodd"/><path d="m499.1-195.4v-59.1l36.58-36.58v-99.19l-36.58-36.23v-685.9h235.3l132.3 130.5v667.9l-55.92 55.58v105.2l60.85 60.85v112.9l-42.21 41.87h-38.34l-23.21-22.87h-48.89l-26.74 26.37h-33.06" fill-rule="evenodd" stroke="#00e9ff" stroke-linecap="round" stroke-linejoin="round" stroke-width="3"/></g><g filter="url(#s)"><use transform="translate(2)" xlink:href="#bm"/></g><g id="bm"><path d="m852.6-427.3h28.13v28.13h-28.13z" fill="#00e9ff" fill-rule="evenodd"/></g><g filter="url(#r)"><use transform="translate(2)" xlink:href="#bl"/></g><g id="bl"><path d="m852.6-778.7h28.13v268h-28.13z" fill="#00e9ff" fill-rule="evenodd"/></g><g filter="url(#q)"><use xlink:href="#bk"/></g><g id="bk"><path d="m499.1-195.4v-59.1l36.58-36.58v-99.19l-36.58-36.23v-685.9h235.3l132.3 130.5v667.9l-55.92 55.58v105.2l60.85 60.85v112.9l-42.21 41.87h-38.34l-23.21-22.87h-48.89l-26.74 26.37h-33.06" fill="#000" fill-opacity="0" fill-rule="evenodd"/><path d="m499.1-195.4v-59.1l36.58-36.58v-99.19l-36.58-36.23v-685.9h235.3l132.3 130.5v667.9l-55.92 55.58v105.2l60.85 60.85v112.9l-42.21 41.87h-38.34l-23.21-22.87h-48.89l-26.74 26.37h-33.06" fill-rule="evenodd" stroke="#00e9ff" stroke-linecap="round" stroke-linejoin="round" stroke-width="3"/></g><g filter="url(#p)"><use transform="translate(2)" xlink:href="#bj"/></g><g id="bj"><path d="m852.6-427.3h28.13v28.13h-28.13z" fill="#00e9ff" fill-rule="evenodd"/></g><g filter="url(#o)"><use transform="translate(2)" xlink:href="#bi"/></g><g id="bi"><path d="m852.6-778.7h28.13v268h-28.13z" fill="#00e9ff" fill-rule="evenodd"/></g><g filter="url(#n)"><use transform="translate(2)" xlink:href="#bh"/></g><g id="bh"><path d="m630.9 51.95h28.13v28.13h-28.13z" fill="#00e9ff" fill-rule="evenodd"/></g><g filter="url(#l)"><use transform="translate(2)" xlink:href="#bf"/></g><g id="bf"><path d="m727.3 25.68h28.13v28.13h-28.13z" fill="#00e9ff" fill-rule="evenodd"/></g><g filter="url(#k)"><use transform="translate(2)" xlink:href="#be"/></g><g id="be"><path d="m485-207.4h28.13v28.13h-28.13z" fill="#00e9ff" fill-rule="evenodd"/></g><g filter="url(#j)"><use transform="translate(2)" xlink:href="#bd"/></g><g id="bd"><path d="m485-1045h28.14v268.2h-28.14z" fill="#00e9ff" fill-rule="evenodd"/></g><g filter="url(#i)"><use transform="translate(2)" xlink:href="#bc"/></g><g id="bc"><path d="m485-1045h28.14v268.2h-28.14z" fill="#00e9ff" fill-rule="evenodd"/></g><g filter="url(#h)"><use transform="translate(2)" xlink:href="#bb"/></g><g id="bb"><path d="m485-207.4h28.13v28.13h-28.13z" fill="#00e9ff" fill-rule="evenodd"/></g><g filter="url(#g)"><use transform="translate(2)" xlink:href="#ba"/></g><g id="ba"><path d="m630.9 51.95h28.13v28.13h-28.13z" fill="#00e9ff" fill-rule="evenodd"/></g><g filter="url(#f)"><use transform="translate(2)" xlink:href="#az"/></g><g id="az"><path d="m727.3 25.68h28.13v28.13h-28.13z" fill="#00e9ff" fill-rule="evenodd"/></g></g></svg>
